# xmcd
#
# Track frame offsets: 
#        150
#        19762
#        33052
#        50312
#        76247
#        99525
#        117225
#        136950
#
# Disc length: 2003 seconds
#
# Revision: 7
# Processed by: cddbd v1.5.2PL0 Copyright (c) Steve Scherf et al.
# Submitted via: ExactAudioCopy v0.99pb4
#
DISCID=5707d108
DTITLE=Aphex Twin - Come To Daddy
DYEAR=1997
DGENRE=Electronic
TTITLE0=Come To Daddy, Pappy Mix
TTITLE1=Flim
TTITLE2=Come To Daddy, Little Lord Faulteroy Mix
TTITLE3=Bucephalus Bouncing Ball
TTITLE4=To Cure A Weakling Child, Contour Regard
TTITLE5=Funny Little Man
TTITLE6=Come To Daddy, Mummy Mix
TTITLE7=IZ-US
EXTD=YEAR: 1997
EXTT0=
EXTT1=
EXTT2=
EXTT3=
EXTT4=
EXTT5=
EXTT6=
EXTT7=
PLAYORDER=
